<svg width="253" height="258" viewBox="0 0 253 258" fill="none" xmlns="http://www.w3.org/2000/svg">
<path opacity="0.4" d="M9.99158 144.774C16.8993 199.11 44.0366 237.843 123.783 252.768C168.128 261.033 248.985 234.636 243.619 186.344C237.698 132.747 181.882 155.197 135.81 137.928C108.303 127.567 93.6239 71.38 48.909 74.6488C13.5688 77.3008 6.29104 115.663 9.99158 144.774Z" fill="#E2E9F9"/>
<path d="M152.309 94.2425L152.309 94.2422C140.257 85.2789 137.713 68.1997 146.737 56.0865L146.737 56.0861C155.701 44.0341 172.78 41.4901 184.893 50.5145L185.026 50.6136H185.085C196.965 59.7253 199.395 76.6641 190.465 88.6709C181.502 100.723 164.422 103.267 152.309 94.2425Z" fill="white" stroke="#EDEDED"/>
<path d="M185.559 85.0227C178.589 94.3974 165.329 96.3093 155.954 89.34C146.58 82.3706 144.668 69.1103 151.637 59.7356C158.606 50.3609 171.867 48.4489 181.241 55.4183C190.616 62.3877 192.528 75.6479 185.559 85.0227Z" fill="white"/>
<path d="M185.931 84.5294C185.807 84.4677 186.301 83.6659 186.979 82.1857C187.966 80.0887 188.583 77.8067 188.891 75.5247C189.076 73.9212 189.076 72.3176 188.953 70.7757C188.768 68.9871 188.336 67.1985 187.719 65.4716C187.041 63.6213 186.054 61.8327 184.82 60.2291C184.204 59.3657 183.463 58.5639 182.723 57.8855C181.922 57.1454 181.12 56.4669 180.195 55.7885C179.27 55.1717 178.344 54.6167 177.358 54.1232C176.432 53.6298 175.446 53.2598 174.397 52.9514C173.41 52.643 172.424 52.3963 171.437 52.273C170.45 52.1496 169.463 52.0263 168.476 52.0263C166.688 52.0263 164.837 52.2113 163.049 52.643C161.507 53.0131 160.027 53.6298 158.608 54.3083C156.573 55.3568 154.661 56.7753 152.996 58.3789C151.824 59.5507 151.269 60.2908 151.145 60.2291C151.022 60.1675 151.454 59.304 152.564 58.0088C154.106 56.0969 155.956 54.555 158.053 53.3215C161.199 51.5329 164.776 50.5461 168.476 50.4844C170.635 50.4844 172.794 50.7928 174.829 51.3478C175.939 51.6562 176.988 52.0879 178.036 52.5814C179.085 53.0748 180.133 53.6915 181.058 54.3699C182.045 55.0484 182.908 55.7885 183.772 56.5903C184.574 57.3921 185.314 58.2555 186.054 59.1807C186.732 60.0441 187.287 60.9693 187.781 61.9561C188.274 62.8812 188.706 63.868 189.076 64.8548C189.754 66.7051 190.124 68.617 190.248 70.529C190.371 72.1942 190.248 73.9212 190.001 75.5864C189.569 77.9918 188.768 80.2738 187.472 82.3707C186.732 83.9126 186.054 84.5911 185.931 84.5294Z" fill="#E0E0E0"/>
<path d="M162.982 83.911L160.823 86.8714L158.171 84.9594L160.268 82.0607C157.74 79.9637 155.828 77.3117 155.211 75.0913L159.035 72.871C159.775 75.0297 161.07 77.0033 162.859 78.4835L166.066 74.0428C163.599 71.2058 161.07 67.8136 163.784 63.9897C165.819 61.1526 169.643 60.2275 174.207 62.8179L176.366 59.8574L179.018 61.7694L176.859 64.6681C178.709 66.1483 180.128 68.0603 181.115 70.2189L177.414 72.5626C176.674 70.9591 175.626 69.4788 174.33 68.2453L171.062 72.7477C173.529 75.5847 176.057 78.9152 173.344 82.6774C171.308 85.5145 167.546 86.4397 162.982 83.911ZM168.841 70.2189L171.617 66.4567C169.951 65.7166 168.841 66.0867 168.225 67.0118C167.608 67.9369 167.978 68.9854 168.841 70.2189ZM168.78 79.9637C169.458 79.0386 169.026 77.9901 168.225 76.7566L165.572 80.4571C167.053 81.0739 168.163 80.8272 168.78 79.9637Z" fill="#E0E0E0"/>
<path d="M64.489 166.372C82.0049 163.843 94.0933 147.561 91.503 130.045C88.9743 112.529 72.6919 100.441 55.2376 103.031L64.489 166.372ZM64.489 166.372C46.9731 168.962 30.6907 156.874 28.162 139.358L64.489 166.372ZM91.0081 130.117L91.0083 130.118C93.5584 147.361 81.6584 163.388 64.4175 165.877L64.4158 165.877C47.1727 168.428 31.1459 156.528 28.6569 139.287L28.6566 139.285C26.1083 122.054 37.9902 106.037 55.212 103.531H55.2376H55.2745L55.311 103.526C72.4916 100.976 88.519 112.875 91.0081 130.117Z" fill="#F0F0F0" stroke="#E0E0E0"/>
<path d="M83.9807 131.156C85.9543 144.478 76.7646 156.875 63.381 158.848C50.059 160.822 37.6622 151.632 35.6886 138.249C33.715 124.927 42.9047 112.53 56.2883 110.556H56.35C69.6103 108.583 82.0071 117.834 83.9807 131.156Z" fill="#F5F5F5"/>
<path d="M83.8529 130.353C83.7295 130.353 83.4211 129.304 82.8044 127.516C81.8792 124.987 80.584 122.643 78.9188 120.485C77.8086 119.066 76.5134 117.709 75.0949 116.538C73.4913 115.242 71.6411 114.132 69.7291 113.269C68.6806 112.775 67.6321 112.405 66.522 112.097C65.4118 111.788 64.24 111.542 63.0681 111.357C61.8346 111.172 60.6628 111.11 59.4293 111.172C58.1957 111.172 56.9006 111.295 55.667 111.542C54.4335 111.788 53.2 112.097 52.0282 112.467C50.8563 112.899 49.7462 113.33 48.636 113.947C47.5875 114.502 46.6007 115.119 45.6756 115.797C44.7504 116.476 43.887 117.216 43.0852 118.018C41.605 119.498 40.3098 121.163 39.1996 122.952C38.2745 124.555 37.5344 126.221 36.9793 127.948C36.1775 130.476 35.7458 133.19 35.7458 135.842C35.7458 137.754 35.8691 138.802 35.7458 138.864C35.6224 138.864 35.2524 137.877 35.0673 135.904C34.759 133.128 35.0057 130.291 35.7458 127.577C36.8559 123.507 38.9529 119.806 41.9134 116.784C42.7768 115.921 43.7019 115.119 44.6271 114.379C45.6139 113.639 46.7241 112.899 47.8342 112.282C49.0061 111.665 50.1779 111.11 51.4114 110.678C52.7066 110.247 54.0018 109.877 55.3587 109.63C56.7155 109.383 58.0724 109.26 59.4293 109.26C60.7245 109.26 62.0813 109.321 63.3765 109.506C64.61 109.691 65.8435 110 67.0771 110.37C68.2489 110.74 69.3591 111.172 70.4692 111.665C72.5045 112.652 74.3548 113.885 76.0817 115.366C77.5619 116.661 78.8571 118.079 79.9673 119.683C81.5709 121.965 82.8044 124.555 83.4828 127.269C83.9145 129.243 83.9762 130.353 83.8529 130.353Z" fill="#E0E0E0"/>
<path d="M64.6147 148.671L65.2931 152.865L61.5309 153.482L60.8524 149.411C57.0902 149.781 53.328 149.165 51.046 147.931L52.4029 143.059C54.8082 144.231 57.4603 144.724 60.1123 144.539L59.1255 138.248C54.8082 137.878 49.9358 137.261 49.0724 131.896C48.4556 127.948 50.7993 124.063 56.5968 122.459L55.9184 118.265L59.6806 117.648L60.359 121.719C63.0728 121.411 65.7865 121.781 68.3152 122.768L67.205 127.702C65.2931 126.961 63.1961 126.591 61.1608 126.653L62.2093 133.006C66.5266 133.314 71.3373 133.993 72.1391 139.235C72.6942 143.182 70.4122 147.006 64.6147 148.671ZM58.2621 132.697L57.3986 127.393C55.4867 128.133 54.8699 129.367 55.0549 130.6C55.3016 131.834 56.4735 132.451 58.2621 132.697ZM66.1566 140.715C65.9099 139.42 64.738 138.865 63.0728 138.557L63.8746 143.737C65.6632 142.997 66.3416 141.887 66.1566 140.715Z" fill="#E0E0E0"/>
<path d="M156.384 18.7823C154.78 27.3552 146.578 33.091 137.943 31.4875C129.37 29.8839 123.634 21.681 125.238 13.0464C126.841 4.4735 135.044 -1.26235 143.679 0.341222C143.679 0.341222 143.679 0.341222 143.74 0.341222C152.252 1.94479 157.926 10.2093 156.384 18.7823Z" fill="#F0F0F0"/>
<path d="M152.688 18.1042C151.516 24.6418 145.225 29.0208 138.626 27.7873C132.088 26.6155 127.709 20.3245 128.943 13.7252C130.114 7.18761 136.405 2.80863 143.005 4.04214C149.542 5.27566 153.86 11.5666 152.688 18.1042Z" fill="#F5F5F5"/>
<path d="M152.744 17.7334C152.683 17.24 152.683 16.7466 152.683 16.2532C152.683 14.958 152.436 13.6012 152.004 12.3676C151.696 11.5042 151.326 10.7024 150.832 9.90061C150.277 9.03715 149.599 8.23536 148.859 7.49525C148.427 7.1252 147.995 6.75514 147.564 6.44676C147.07 6.13839 146.577 5.83001 146.022 5.5833C145.467 5.3366 144.911 5.0899 144.356 4.90487C143.74 4.71984 143.185 4.59649 142.568 4.47314C141.951 4.41146 141.334 4.34979 140.717 4.34979C140.101 4.34979 139.484 4.41146 138.929 4.47314C138.374 4.53482 137.757 4.71984 137.202 4.84319C136.647 5.02822 136.153 5.21325 135.66 5.45995C133.871 6.32341 132.391 7.55693 131.219 9.1605C130.418 10.209 129.801 11.3808 129.369 12.676C129.246 13.1694 129.061 13.6012 128.876 14.0946C128.814 13.6012 128.876 13.1077 128.999 12.6143C129.307 11.2575 129.863 9.96228 130.603 8.85212C131.158 8.05033 131.775 7.31022 132.453 6.69347C133.255 5.95336 134.18 5.3366 135.167 4.78152C135.722 4.53482 136.277 4.28811 136.832 4.10309C137.449 3.91806 138.065 3.73303 138.682 3.67136C139.299 3.548 139.977 3.48633 140.656 3.48633C142.013 3.48633 143.308 3.67136 144.603 4.10309C145.22 4.28811 145.837 4.53482 146.392 4.84319C147.502 5.39828 148.489 6.13839 149.352 7.00185C150.154 7.80363 150.832 8.66709 151.387 9.59223C151.881 10.394 152.251 11.3191 152.559 12.2443C152.929 13.6012 153.114 14.958 152.991 16.3149C153.053 16.7466 152.929 17.24 152.744 17.7334Z" fill="#E0E0E0"/>
<path d="M140.846 23.2231L140.476 25.3201L138.626 25.0117L138.996 22.9764C137.331 22.668 135.851 21.8662 134.617 20.6944L136.036 18.5974C136.961 19.5226 138.133 20.201 139.428 20.5094L139.983 17.4256C138.009 16.5621 135.851 15.5136 136.282 12.8616C136.591 10.888 138.318 9.46941 141.278 9.65444L141.648 7.61914L143.498 7.92752L143.128 9.96282C144.424 10.2712 145.657 10.888 146.706 11.7514L145.41 13.8484C144.609 13.17 143.745 12.6766 142.758 12.3682L142.142 15.5136C144.115 16.3771 146.274 17.4256 145.78 20.016C145.472 21.9279 143.807 23.3465 140.846 23.2231ZM140.353 14.7119L140.785 12.0598C139.798 12.1215 139.305 12.5532 139.181 13.17C139.12 13.8484 139.613 14.3418 140.353 14.7119ZM142.82 19.7693C142.943 19.1525 142.45 18.6591 141.71 18.289L141.278 20.8177C142.203 20.6944 142.697 20.3243 142.82 19.7693Z" fill="#E0E0E0"/>
<path d="M252.104 256.851C252.104 256.913 172.419 257.036 119.378 257.036C66.3364 257.036 0.898438 256.974 0.898438 256.851C0.898438 256.728 66.2747 256.666 119.378 256.666C172.48 256.666 252.104 256.789 252.104 256.851Z" fill="#263238"/>
<path d="M47.0289 231.687C57.6371 224.286 60.0424 210.533 59.6107 198.198C59.549 196.162 59.7957 193.942 58.8089 192.153C57.8221 190.365 55.5401 189.131 53.6898 189.995C52.148 190.735 51.4695 192.462 50.6061 193.942C49.4342 195.916 47.769 197.519 45.7954 198.568C44.5002 199.246 42.8349 199.678 41.6014 198.938C39.8128 197.951 39.6278 195.484 39.6278 193.449C39.6278 189.625 39.6895 185.801 39.6895 181.977C39.6895 179.942 39.6895 177.845 39.0727 175.871C38.4559 173.897 37.0374 172.109 35.0638 171.554C33.0901 170.999 30.6848 172.109 30.3147 174.144C30.2531 175.007 30.1914 175.871 30.2531 176.673C30.1914 177.536 29.8213 178.461 29.0195 178.708C28.2178 178.955 27.3543 178.338 26.7375 177.783C24.6406 175.686 23.1604 173.034 21.8652 170.382C20.5083 167.73 19.2131 165.016 17.3012 162.734C15.3892 160.452 12.7372 158.663 9.77672 158.54C6.81628 158.355 3.7325 160.205 2.99239 163.042C2.25228 165.941 3.91752 168.84 5.7678 171.184C8.48153 174.637 11.6887 177.721 15.2659 180.25C15.9443 180.62 16.4994 181.237 16.8694 181.977C17.3012 183.334 16.006 184.691 14.6491 185.122C13.1072 185.616 11.442 185.492 9.90007 185.677C8.35818 185.862 6.56958 186.603 5.95282 188.083C5.08936 190.18 6.87796 192.4 8.60488 193.819C12.0587 196.717 16.006 198.938 20.1999 200.541C21.7418 201.096 23.2837 201.59 24.5172 202.638C25.7507 203.687 26.4908 205.537 25.7507 206.956C25.0106 208.374 23.0987 208.867 21.5568 208.559C20.0149 208.251 18.5963 207.387 17.0545 206.832C14.2174 205.784 10.5785 205.969 8.78991 208.374C7.61807 209.978 7.49472 212.198 8.11147 214.11C8.78991 215.96 9.8384 217.687 11.1953 219.167C15.6359 224.533 21.4951 228.604 28.0327 231.009C34.5087 233.353 40.5529 233.969 47.0289 231.687Z" fill="#FF725E"/>
<path d="M5.89062 160.391C5.9523 160.452 6.01398 160.514 6.07565 160.576L6.69241 161.131C7.24749 161.624 8.04928 162.303 9.03609 163.228C11.8732 165.818 14.4636 168.655 16.8689 171.677C18.4108 173.589 19.9527 175.748 21.6179 178.092C23.2832 180.435 25.0101 182.964 26.7987 185.678C28.649 188.515 30.3142 191.414 31.8561 194.436C32.6579 195.978 33.3363 197.643 34.0764 199.308L36.2351 204.365C39.0105 210.78 41.4775 217.379 43.5128 224.102C45.1781 229.591 46.3499 235.203 46.905 240.939C47.275 244.763 47.3984 248.649 47.09 252.534C46.9667 253.891 46.905 254.94 46.7816 255.68C46.72 256.05 46.72 256.296 46.6583 256.481C46.6583 256.605 46.6583 256.666 46.6583 256.79C46.6583 256.728 46.72 256.605 46.72 256.481C46.72 256.296 46.7816 255.988 46.8433 255.68C46.9667 254.94 47.09 253.891 47.2134 252.534C47.5217 248.649 47.5218 244.763 47.1517 240.939C46.5966 235.203 45.4865 229.591 43.8212 224.04C41.7859 217.317 39.3189 210.718 36.4818 204.242L34.3231 199.185C33.583 197.519 32.9046 195.854 32.1028 194.312C30.5609 191.29 28.8957 188.391 26.9837 185.554C25.1951 182.841 23.4682 180.312 21.803 177.968C20.1377 175.625 18.5342 173.466 16.9923 171.616C14.5869 168.594 11.9348 165.818 9.03609 163.228C8.04928 162.303 7.24749 161.624 6.69241 161.192L6.07565 160.699L5.89062 160.391Z" fill="#263238"/>
<path d="M32.0391 194.189C32.1624 193.881 32.2241 193.634 32.2241 193.326C32.3474 192.771 32.4708 191.907 32.5941 190.921C32.9025 188.885 33.2109 186.048 33.5193 182.903C33.8277 179.757 34.1977 176.982 34.5061 174.947C34.6911 173.96 34.8145 173.096 34.8761 172.541C34.9378 172.233 34.9995 171.924 34.9995 171.678C34.8761 171.924 34.8145 172.233 34.7528 172.541C34.6294 173.096 34.4444 173.898 34.2594 174.947C33.8893 176.982 33.4576 179.819 33.1492 182.903C32.8408 186.048 32.5325 188.762 32.3474 190.921C32.2241 191.907 32.1624 192.709 32.1007 193.326C32.0391 193.573 32.0391 193.881 32.0391 194.189Z" fill="#263238"/>
<path d="M5.70312 189.255C6.07318 189.317 6.38156 189.379 6.75161 189.379C7.43005 189.44 8.41686 189.502 9.5887 189.687C11.9941 189.934 15.3245 190.427 18.9634 191.106C22.6023 191.784 25.8711 192.586 28.2148 193.202C29.3866 193.511 30.3117 193.758 30.9902 193.943C31.2986 194.066 31.6686 194.128 32.0387 194.189C31.7303 194.004 31.4219 193.881 31.0519 193.819C30.4351 193.573 29.4483 193.264 28.2764 192.956C25.9328 192.277 22.664 191.476 19.0251 190.735C15.9413 190.119 12.7958 189.687 9.5887 189.44C8.35518 189.317 7.36837 189.317 6.68994 189.255C6.38156 189.194 6.0115 189.194 5.70312 189.255Z" fill="#263238"/>
<path d="M43.5156 223.424C43.5773 223.3 43.639 223.239 43.7007 223.115L44.1324 222.19C44.5024 221.327 45.0575 220.155 45.6743 218.613C46.9695 215.591 48.573 211.335 50.3 206.71C52.0269 202.022 53.6304 197.767 54.8023 194.745L56.2208 191.167C56.4059 190.797 56.4675 190.427 56.5909 190.181C56.6526 190.057 56.6526 189.934 56.7142 189.811C56.6526 189.934 56.5909 189.996 56.5292 190.119L56.0975 191.044C55.7274 191.846 55.1723 193.079 54.5556 194.621C53.2604 197.643 51.6568 201.837 49.9299 206.525C48.203 211.212 46.5994 215.468 45.4276 218.49L44.009 222.067L43.639 223.054C43.5773 223.177 43.5156 223.3 43.5156 223.424Z" fill="#263238"/>
<path d="M8.48438 212.197C8.60773 212.259 8.73108 212.321 8.85443 212.321L9.84124 212.629L13.6035 213.863C16.7489 214.911 21.1279 216.33 25.9386 217.995C30.7493 219.66 35.1283 221.079 38.3354 222.004C39.939 222.497 41.2342 222.867 42.0977 223.114L43.1461 223.361C43.2695 223.422 43.3928 223.422 43.5162 223.422C43.3928 223.361 43.2695 223.299 43.1461 223.299L42.1593 222.991L38.3971 221.757C35.2516 220.709 30.8727 219.29 26.062 217.625C21.2513 215.959 16.8723 214.541 13.7268 213.616C12.1232 213.122 10.8281 212.752 9.96459 212.506L8.91611 212.259C8.79275 212.197 8.6694 212.197 8.48438 212.197Z" fill="#263238"/>
<path d="M147.566 226.075L79.106 225.766C70.9032 225.704 64.2422 219.043 64.2422 210.779L65.044 39.1353C65.1056 30.8708 71.7666 24.2715 80.0312 24.2715L148.491 24.5799C156.756 24.6415 163.355 31.3025 163.355 39.5671L162.615 211.211C162.553 219.475 155.892 226.136 147.566 226.075C147.628 226.075 147.628 226.075 147.566 226.075Z" fill="#263238"/>
<path d="M148.366 30.5615L135.106 30.4998C133.318 30.4998 131.837 32.0417 131.837 33.8303V36.2356C131.899 38.0859 130.419 39.5661 128.568 39.5661L102.726 39.4428C100.876 39.3811 99.4575 37.9009 99.5192 36.0506V33.6452C99.5809 31.8567 98.1007 30.3148 96.3121 30.2531H91.6247L80.0297 30.1914C74.2322 30.1914 69.5448 34.8171 69.5448 40.6146L68.8047 208.126C68.8047 213.862 73.4304 218.611 79.1662 218.611L147.503 218.919C153.239 218.919 157.988 214.293 157.988 208.496L158.728 40.9847C158.79 35.2488 154.102 30.5615 148.366 30.5615Z" fill="white"/>
<path d="M132.826 113.393H88.8516V155.764H132.826V113.393Z" fill="#FF725E"/>
<path d="M101.002 101.613L88.8516 113.393H132.826L141.276 101.613H101.002Z" fill="#FF725E"/>
<path opacity="0.1" d="M101.002 101.613L88.8516 113.393H132.826L141.276 101.613H101.002Z" fill="black"/>
<path d="M132.828 155.765L141.278 143.799V101.613L132.828 113.393V155.765Z" fill="#FF725E"/>
<path opacity="0.3" d="M132.828 155.765L141.278 143.799V101.613L132.828 113.393V155.765Z" fill="black"/>
<path d="M121.295 130.971H98.3516V133.561H121.295V130.971Z" fill="#FF725E"/>
<path opacity="0.2" d="M121.295 130.971H98.3516V133.561H121.295V130.971Z" fill="black"/>
<path d="M117.218 135.535H102.539V138.002H117.218V135.535Z" fill="#FF725E"/>
<path opacity="0.2" d="M117.218 135.535H102.539V138.002H117.218V135.535Z" fill="black"/>
<path d="M97.7901 99.9478C97.7284 99.3928 97.6667 98.8994 97.5434 98.3443C97.1733 96.9257 96.3099 95.6922 95.138 94.7671C94.3362 94.1503 93.4111 93.7803 92.4243 93.5953C91.3141 93.4102 90.1423 93.4719 89.0321 93.9036C88.477 94.0887 87.922 94.397 87.4286 94.7671C86.9352 95.1371 86.4418 95.6305 86.0717 96.124C84.4065 98.406 84.4065 101.49 86.0717 103.71C86.4418 104.265 86.9352 104.697 87.4286 105.067C87.922 105.437 88.477 105.745 89.0321 105.93C91.0674 106.671 93.4111 106.362 95.138 105.005C96.3099 104.142 97.1733 102.847 97.5434 101.428C97.6667 100.996 97.7284 100.441 97.7901 99.9478C97.8518 100.503 97.7901 101.058 97.6667 101.551C97.2967 103.032 96.4949 104.327 95.2614 105.252C93.4728 106.671 91.0674 107.041 88.9088 106.239C87.6753 105.807 86.5651 104.944 85.7633 103.895C83.9747 101.49 83.9747 98.2826 85.7633 95.8773C86.5651 94.8288 87.6753 93.9653 88.9088 93.5336C90.0189 93.1018 91.2525 93.0402 92.4243 93.2869C95.0147 93.7803 97.05 95.7539 97.6051 98.2826C97.7901 98.8377 97.8518 99.3928 97.7901 99.9478Z" fill="#263238"/>
<path d="M88.2344 99.0224C88.2344 98.0972 88.7278 97.4805 89.5296 97.4805C90.3313 97.4805 90.8248 98.0972 90.8248 99.0224C90.8248 99.9475 90.2697 100.564 89.5296 100.564C88.7895 100.564 88.2344 99.9475 88.2344 99.0224ZM90.393 99.0224C90.393 98.2823 90.023 97.8505 89.5296 97.8505C89.0362 97.8505 88.6661 98.2823 88.6661 99.0224C88.6661 99.7625 89.0362 100.194 89.5296 100.194C90.023 100.194 90.393 99.7625 90.393 99.0224ZM92.9834 97.4805H93.4768L89.5912 103.155H89.0978L92.9834 97.4805ZM91.7499 101.674C91.7499 100.749 92.305 100.133 93.0451 100.133C93.7852 100.133 94.3403 100.749 94.3403 101.674C94.3403 102.6 93.8469 103.216 93.0451 103.216C92.2433 103.216 91.7499 102.6 91.7499 101.674ZM93.9085 101.674C93.9085 100.934 93.6002 100.503 93.0451 100.503C92.49 100.503 92.1816 100.934 92.1816 101.674C92.1816 102.415 92.5517 102.846 93.0451 102.846C93.5385 102.846 93.9085 102.415 93.9085 101.674Z" fill="#263238"/>
<path d="M125.918 170.134C125.918 171.367 124.993 172.416 123.019 172.416C122.094 172.416 121.169 172.169 120.367 171.676L120.984 170.442C121.539 170.874 122.217 171.059 122.958 171.059C123.759 171.059 124.253 170.751 124.253 170.195C124.253 169.64 123.883 169.27 122.649 169.27H120.861L121.231 165.385H125.425V166.68H122.526L122.402 167.975H122.958C125.116 167.975 125.918 168.9 125.918 170.134Z" fill="#263238"/>
<path d="M126.594 168.839C126.594 166.557 127.889 165.262 129.554 165.262C131.219 165.262 132.515 166.557 132.515 168.839C132.515 171.121 131.281 172.416 129.554 172.416C127.827 172.416 126.594 171.121 126.594 168.839ZM130.911 168.839C130.911 167.297 130.356 166.619 129.554 166.619C128.752 166.619 128.197 167.235 128.197 168.839C128.197 170.381 128.752 171.059 129.554 171.059C130.294 171.059 130.849 170.381 130.911 168.839Z" fill="#263238"/>
<path d="M136.586 166.928C136.648 167.668 136.154 168.347 135.352 168.409C135.291 168.409 135.229 168.409 135.106 168.409C134.859 168.409 134.551 168.347 134.304 168.223L134.551 167.73C134.736 167.853 134.921 167.853 135.106 167.853C135.537 167.853 135.846 167.545 135.907 167.175C135.907 167.113 135.907 167.113 135.907 167.052C135.722 167.237 135.476 167.298 135.229 167.298C134.736 167.36 134.304 166.99 134.242 166.497V166.435C134.242 165.88 134.674 165.51 135.229 165.51H135.291C136.154 165.51 136.586 166.003 136.586 166.928ZM135.846 166.435C135.846 166.188 135.661 166.003 135.414 166.003H135.352C135.106 165.941 134.921 166.127 134.859 166.373C134.797 166.62 134.982 166.805 135.229 166.867C135.291 166.867 135.352 166.867 135.352 166.867C135.599 166.928 135.784 166.743 135.846 166.497C135.907 166.435 135.907 166.435 135.846 166.435Z" fill="#263238"/>
<path d="M139.18 166.926C139.241 167.667 138.748 168.345 137.946 168.407C137.884 168.407 137.823 168.407 137.699 168.407C137.453 168.407 137.144 168.345 136.898 168.222L137.144 167.79C137.329 167.913 137.514 167.913 137.699 167.913C138.131 167.913 138.44 167.667 138.501 167.235C138.501 167.173 138.501 167.173 138.501 167.112C138.316 167.297 138.069 167.358 137.823 167.358C137.329 167.42 136.898 167.05 136.836 166.556V166.495C136.836 165.94 137.268 165.57 137.823 165.57H137.884C138.686 165.508 139.18 166.001 139.18 166.926ZM138.44 166.433C138.44 166.186 138.254 166.001 138.008 166.001H137.946C137.699 166.001 137.514 166.186 137.514 166.433C137.514 166.68 137.699 166.865 137.946 166.865C138.193 166.865 138.378 166.68 138.44 166.433Z" fill="#263238"/>
<path d="M139.114 169.395H134.18V170.011H139.114V169.395Z" fill="#263238"/>
<path d="M111.176 167.42H85.7656V168.222H111.176V167.42Z" fill="#263238"/>
<path d="M101.185 169.949H85.7656V170.751H101.185V169.949Z" fill="#263238"/>
<path d="M140.41 202.453L89.5892 202.206C89.0341 202.206 88.6641 201.651 88.6641 200.911L88.7257 187.651C88.7257 186.972 89.1575 186.355 89.6509 186.355L140.472 186.602C140.965 186.602 141.397 187.157 141.397 187.897L141.335 201.158C141.335 201.898 140.965 202.453 140.41 202.453Z" fill="#FF725E"/>
<path d="M112.903 195.052C112.903 195.731 112.41 196.101 111.485 196.101H109.758V192.092H111.423C112.287 192.092 112.78 192.462 112.78 193.14C112.78 193.572 112.533 193.88 112.163 194.065C112.595 194.127 112.965 194.559 112.903 195.052ZM112.533 194.991C112.533 194.497 112.163 194.25 111.485 194.25H110.128V195.731H111.485C112.163 195.731 112.533 195.546 112.533 194.991ZM110.19 192.462V193.88H111.423C112.04 193.88 112.41 193.634 112.41 193.14C112.41 192.647 112.04 192.4 111.423 192.4H110.19V192.462Z" fill="white"/>
<path d="M113.828 194.374V192.092H114.198V194.374C114.198 195.299 114.63 195.731 115.37 195.731C116.11 195.731 116.542 195.299 116.542 194.374V192.092H116.912V194.374C116.912 195.484 116.295 196.101 115.37 196.101C114.445 196.162 113.828 195.546 113.828 194.374Z" fill="white"/>
<path d="M119.444 194.744V196.162H119.074V194.805L117.594 192.215H118.025L119.321 194.435L120.616 192.215H120.986L119.444 194.744Z" fill="white"/>
<path d="M98.3452 67.752H79.1641V77.5584H98.3452V67.752Z" fill="#FF725E"/>
<path d="M83.2963 64.2988L79.1641 67.7527H98.4069L101.182 64.2988H83.2963Z" fill="#FF725E"/>
<path opacity="0.2" d="M83.2963 64.2988L79.1641 67.7527H98.4069L101.182 64.2988H83.2963Z" fill="black"/>
<path d="M98.4141 77.5591L101.189 73.7969V64.2988L98.4141 67.7527V77.5591Z" fill="#FF725E"/>
<path opacity="0.1" d="M98.4141 77.5591L101.189 73.7969V64.2988L98.4141 67.7527V77.5591Z" fill="black"/>
<path d="M95.0831 70.959H82.0078V71.9458H95.0831V70.959Z" fill="#FF725E"/>
<path opacity="0.1" d="M95.0831 70.959H82.0078V71.9458H95.0831V70.959Z" fill="black"/>
<path d="M92.7349 72.748H84.5938V73.7349H92.7349V72.748Z" fill="#FF725E"/>
<path opacity="0.1" d="M92.7349 72.748H84.5938V73.7349H92.7349V72.748Z" fill="black"/>
<path d="M93.3517 82.8633H84.5938V84.2201H93.3517V82.8633Z" fill="#263238"/>
<path d="M79.1641 67.7535C79.4724 67.6918 79.7808 67.6918 80.0892 67.6918L82.6179 67.6301C84.7766 67.6301 87.737 67.5685 91.0058 67.5685L98.4069 67.6301L98.2835 67.6918L100.381 65.2248C100.627 64.9164 100.874 64.608 101.182 64.3613C100.997 64.7314 100.751 65.0398 100.442 65.3481L98.4069 67.8768L98.3452 67.9385H98.2835L90.8824 68.0002C87.6136 68.0002 84.6532 68.0002 82.4946 67.9385L79.9658 67.8768C79.7808 67.8152 79.4724 67.8152 79.1641 67.7535Z" fill="#FF725E"/>
<g opacity="0.2">
<path d="M79.1641 67.7535C79.4724 67.6918 79.7808 67.6918 80.0892 67.6918L82.6179 67.6301C84.7766 67.6301 87.737 67.5685 91.0058 67.5685L98.4069 67.6301L98.2835 67.6918L100.381 65.2248C100.627 64.9164 100.874 64.608 101.182 64.3613C100.997 64.7314 100.751 65.0398 100.442 65.3481L98.4069 67.8768L98.3452 67.9385H98.2835L90.8824 68.0002C87.6136 68.0002 84.6532 68.0002 82.4946 67.9385L79.9658 67.8768C79.7808 67.8152 79.4724 67.8152 79.1641 67.7535Z" fill="black"/>
</g>
<path d="M98.4113 77.5584C98.2263 75.9548 98.1646 74.2896 98.2263 72.686C98.1646 71.0208 98.2263 69.4172 98.4113 67.752C98.5963 69.4172 98.658 71.0208 98.5963 72.686C98.5963 74.2896 98.5346 75.9548 98.4113 77.5584Z" fill="#FF725E"/>
<g opacity="0.2">
<path d="M98.4113 77.5584C98.2263 75.9548 98.1646 74.2896 98.2263 72.686C98.1646 71.0208 98.2263 69.4172 98.4113 67.752C98.5963 69.4172 98.658 71.0208 98.5963 72.686C98.5963 74.2896 98.5346 75.9548 98.4113 77.5584Z" fill="black"/>
</g>
<path d="M120.735 82.8633H111.977V84.2201H120.735V82.8633Z" fill="#263238"/>
<path d="M109.213 62.3239L109.086 77.4961L122.84 77.6113L122.967 62.439L109.213 62.3239Z" fill="#FF725E"/>
<path d="M113.212 59.2422L109.203 62.3876H122.957L125.794 59.2422H113.212Z" fill="#FF725E"/>
<path d="M122.961 77.5599L125.798 73.7977V59.2422L122.961 62.3876V77.5599Z" fill="#FF725E"/>
<path d="M119.133 68.4922H112.164V69.479H119.133V68.4922Z" fill="#FF725E"/>
<path opacity="0.2" d="M119.133 68.4922H112.164V69.479H119.133V68.4922Z" fill="black"/>
<path d="M117.841 70.3438H113.523V71.3306H117.841V70.3438Z" fill="#FF725E"/>
<path opacity="0.2" d="M117.841 70.3438H113.523V71.3306H117.841V70.3438Z" fill="black"/>
<path d="M109.203 62.3876C109.45 62.326 109.697 62.326 109.943 62.326L111.855 62.2643C113.459 62.2643 115.741 62.2026 118.208 62.2026H123.018L122.895 62.2643C123.759 61.3392 124.499 60.5374 124.992 60.044C125.239 59.7356 125.547 59.4889 125.856 59.2422C125.671 59.5506 125.424 59.8589 125.115 60.1673C124.622 60.7224 123.944 61.5242 123.08 62.4493L123.018 62.511H122.957H118.146C115.679 62.511 113.397 62.511 111.794 62.4493L109.882 62.3876C109.635 62.3876 109.388 62.3876 109.203 62.3876Z" fill="#FF725E"/>
<g opacity="0.3">
<path d="M109.203 62.3876C109.45 62.326 109.697 62.326 109.943 62.326L111.855 62.2643C113.459 62.2643 115.741 62.2026 118.208 62.2026H123.018L122.895 62.2643C123.759 61.3392 124.499 60.5374 124.992 60.044C125.239 59.7356 125.547 59.4889 125.856 59.2422C125.671 59.5506 125.424 59.8589 125.115 60.1673C124.622 60.7224 123.944 61.5242 123.08 62.4493L123.018 62.511H122.957H118.146C115.679 62.511 113.397 62.511 111.794 62.4493L109.882 62.3876C109.635 62.3876 109.388 62.3876 109.203 62.3876Z" fill="black"/>
</g>
<path d="M122.958 77.559C122.897 77.559 122.773 74.1668 122.773 69.9728C122.773 65.7789 122.835 62.3867 122.958 62.3867C123.082 62.3867 123.143 65.7789 123.143 69.9728C123.143 74.1668 123.02 77.559 122.958 77.559Z" fill="#FF725E"/>
<g opacity="0.3">
<path d="M122.958 77.559C122.897 77.559 122.773 74.1668 122.773 69.9728C122.773 65.7789 122.835 62.3867 122.958 62.3867C123.082 62.3867 123.143 65.7789 123.143 69.9728C123.143 74.1668 123.02 77.559 122.958 77.559Z" fill="black"/>
</g>
<path d="M145.164 82.8633H136.406V84.2201H145.164V82.8633Z" fill="#263238"/>
<path d="M134.492 67.999C135.232 67.8757 135.911 67.8757 136.651 67.8757C138.008 67.8757 139.858 67.814 141.893 67.814C143.682 67.814 145.347 67.814 146.642 67.8757L146.581 67.9373C147.136 67.3206 147.567 66.8888 147.937 66.5188C148.123 66.3338 148.246 66.1487 148.493 66.0254C148.369 66.2104 148.246 66.4571 148.061 66.5805C147.752 66.9505 147.321 67.4439 146.827 68.0607L146.766 68.1224H146.704C145.47 68.1224 143.805 68.184 141.955 68.184C139.92 68.184 138.069 68.184 136.713 68.1224C135.972 68.1224 135.232 68.1224 134.492 67.999Z" fill="#FF725E"/>
<path d="M146.581 68H134.492V77.5597H146.581V68Z" fill="#FF725E"/>
<path opacity="0.2" d="M146.581 68H134.492V77.5597H146.581V68Z" fill="black"/>
<path d="M137.083 66.0254L134.492 67.999H146.642L148.431 66.0254H137.083Z" fill="#FF725E"/>
<path d="M146.641 77.5588L148.429 75.2151V66.0254L146.641 67.999V77.5588Z" fill="#FF725E"/>
<path opacity="0.1" d="M146.641 77.5588L148.429 75.2151V66.0254L146.641 67.999V77.5588Z" fill="black"/>
<path d="M143.496 71.6387H137.945V72.3788H143.496V71.6387Z" fill="#FF725E"/>
<path d="M142.509 72.9961H139.055V73.7362H142.509V72.9961Z" fill="#FF725E"/>
<path d="M146.638 77.5597C146.453 75.9562 146.391 74.3526 146.453 72.749C146.391 71.1455 146.453 69.5419 146.638 68C146.823 69.6036 146.823 71.2071 146.823 72.749C146.823 74.3526 146.761 75.9562 146.638 77.5597Z" fill="#FF725E"/>
<path d="M163.906 21.9277L162.673 24.2714L160.391 25.5049L162.673 26.7384L163.906 29.0204L165.201 26.7384L167.483 25.5049L165.201 24.2714L163.906 21.9277Z" fill="url(#paint0_linear_5139_3409)"/>
<path d="M56.5936 80.9512L55.3601 83.2332L53.0781 84.5284L55.3601 85.7619L56.5936 88.0439L57.8888 85.7619L60.1708 84.5284L57.8888 83.2332L56.5936 80.9512Z" fill="url(#paint1_linear_5139_3409)"/>
<path d="M173.034 31.6719L172.294 33.0904L170.875 33.8305L172.294 34.6323L173.034 36.0509L173.835 34.6323L175.254 33.8305L173.835 33.0904L173.034 31.6719Z" fill="url(#paint2_linear_5139_3409)"/>
<path d="M49.7446 67.752L48.9428 69.1705L47.5859 69.9723L48.9428 70.7124L49.7446 72.1309L50.4847 70.7124L51.9032 69.9723L50.4847 69.1705L49.7446 67.752Z" fill="url(#paint3_linear_5139_3409)"/>
<path d="M223.978 228.232L219.414 224.655L226.075 216.082L232.798 221.263L232.428 221.818C230.701 224.285 223.608 234.215 221.943 235.387C219.969 236.743 223.978 228.232 223.978 228.232Z" fill="#FF725E"/>
<path d="M221.321 235.264C221.26 235.203 223.665 231.996 226.749 228.048C229.833 224.101 232.423 221.017 232.485 221.079C232.546 221.141 230.141 224.348 227.057 228.295C223.912 232.242 221.383 235.326 221.321 235.264Z" fill="#263238"/>
<path d="M224.779 229.096C224.779 229.22 224.47 229.22 224.1 229.22C223.73 229.22 223.484 229.158 223.422 229.096C223.422 228.973 223.73 228.85 224.1 228.85C224.47 228.85 224.779 229.035 224.779 229.096Z" fill="#263238"/>
<path d="M224.653 229.899C224.591 230.022 224.283 230.022 223.913 229.961C223.543 229.899 223.234 229.837 223.234 229.714C223.234 229.591 223.543 229.529 223.974 229.591C224.345 229.591 224.653 229.776 224.653 229.899Z" fill="#263238"/>
<path d="M230.391 223.606C230.329 223.606 230.206 223.421 230.083 223.113C229.898 222.681 229.836 222.188 229.836 221.695C229.836 221.201 230.021 220.708 230.329 220.338C230.576 220.029 230.823 219.968 230.823 220.029C230.823 220.091 230.699 220.214 230.514 220.523C230.268 220.893 230.206 221.324 230.144 221.756C230.144 222.188 230.206 222.62 230.268 223.051C230.453 223.36 230.453 223.606 230.391 223.606Z" fill="#263238"/>
<path d="M223.918 228.48C223.857 228.418 224.042 228.233 224.288 228.048C224.535 227.863 224.782 227.801 224.843 227.863C224.905 227.925 224.782 228.171 224.535 228.356C224.227 228.541 223.918 228.541 223.918 228.48Z" fill="#263238"/>
<path d="M223.547 227.987C223.486 227.925 223.609 227.617 223.794 227.37C223.979 227.124 224.287 226.939 224.349 227C224.411 227.062 224.287 227.309 224.102 227.617C223.856 227.864 223.671 228.049 223.547 227.987Z" fill="#263238"/>
<path d="M193.876 154.84C193.876 154.84 180.307 190.797 182.158 197.519C184.008 204.242 220.52 230.948 220.52 230.948L230.45 216.701C230.45 216.701 201.956 194.189 201.894 192.894C201.832 191.66 213.181 161.748 213.181 161.748L193.876 154.84Z" fill="#263238"/>
<path d="M219.905 219.969L219.782 219.907C219.72 219.845 219.597 219.784 219.412 219.66L218.055 218.735C216.883 217.933 215.218 216.7 213.121 215.22C208.989 212.198 203.438 207.88 197.517 202.761C196.037 201.466 194.618 200.232 193.2 198.999L191.164 197.21C190.486 196.655 189.869 195.977 189.438 195.237C189.068 194.435 188.944 193.571 189.191 192.708C189.376 191.906 189.561 191.166 189.746 190.426C190.116 189.007 190.548 187.651 190.856 186.417L192.521 180.62C192.706 179.941 192.83 179.448 192.953 179.016L193.076 178.584C193.015 178.584 193.015 178.523 193.015 178.523C193.015 178.461 193.076 178.461 193.076 178.461L193.138 178.523C193.138 178.523 193.138 178.584 193.076 178.584C193.076 178.708 193.015 178.831 193.015 179.016C192.953 179.386 192.83 179.941 192.645 180.62C192.275 182.038 191.72 184.012 191.041 186.479C190.671 187.712 190.301 189.069 189.931 190.488C189.746 191.228 189.561 191.968 189.376 192.708C189.191 193.51 189.253 194.312 189.623 194.99C190.054 195.73 190.609 196.347 191.288 196.84L193.323 198.629C194.68 199.862 196.16 201.096 197.64 202.329C203.561 207.387 209.112 211.766 213.183 214.85L218.055 218.488L219.35 219.475L219.72 219.722C219.844 219.907 219.905 219.969 219.905 219.969Z" fill="#455A64"/>
<path d="M216.572 224.286C216.51 224.224 218.36 221.634 220.766 218.489C223.171 215.343 225.145 212.814 225.268 212.876C225.391 212.938 223.479 215.528 221.074 218.674C218.669 221.881 216.695 224.348 216.572 224.286Z" fill="#455A64"/>
<path d="M217.808 86.3789C219.041 88.7843 219.658 90.8812 222.063 92.1148C223.173 92.6698 224.469 92.9782 225.147 94.0267C225.825 95.1369 225.517 96.7404 226.442 97.7272C227.737 99.1458 230.389 97.974 231.87 99.2691C233.165 100.379 232.733 102.785 234.152 103.771C234.953 104.327 236.002 104.203 236.927 104.573C238.407 105.128 239.086 106.855 239.332 108.459C239.517 109.692 239.394 110.988 238.839 112.221C238.284 113.393 237.235 114.256 235.94 114.441C234.275 114.626 232.363 113.455 231.006 114.441C230.574 114.873 230.204 115.305 229.896 115.798C228.478 117.649 225.764 117.957 223.975 116.538C223.543 116.23 223.235 115.86 222.988 115.367C222.063 113.825 222.125 111.666 220.768 110.432C219.966 109.877 219.103 109.507 218.178 109.261C217.253 108.952 216.327 108.397 216.081 107.472C215.772 106.67 215.341 105.93 214.785 105.252C214.107 104.203 213.182 105.498 212.257 105.005C211.332 104.512 211.702 103.525 211.64 102.476" fill="#263238"/>
<path d="M201.835 121.348L190.116 117.463C190.116 117.463 184.935 132.388 183.332 132.512C174.574 133.314 165.138 130.415 161.869 129.243C161.56 128.873 161.129 128.441 160.697 127.886C160.327 127.393 160.08 126.899 159.895 126.283C159.648 125.604 159.463 124.864 159.402 124.124C159.463 123.754 159.155 123.384 158.785 123.384C158.6 123.384 158.353 123.445 158.23 123.569C157.86 124.062 157.736 125.912 158.6 127.948C159.463 129.983 156.38 128.379 155.269 127.763C154.159 127.208 150.582 125.604 150.15 125.789C149.472 126.097 149.719 126.838 150.829 127.393C152.001 127.948 155.269 129.798 154.961 130.353C154.653 130.908 148.917 127.948 148.917 127.948C148.917 127.948 147.807 127.146 147.375 127.763C146.635 128.935 152.926 131.648 153.542 131.895C153.974 132.08 153.604 132.697 153.172 132.512C152.741 132.327 147.622 129.428 146.882 130.661C146.326 131.587 152.062 132.944 152.802 134.115C153.542 135.287 148.547 132.635 148.053 133.56C147.868 133.869 147.745 134.177 150.829 135.287C153.111 135.966 155.393 136.582 157.675 137.014C157.675 137.014 188.451 150.768 195.112 137.508C202.205 123.569 201.835 121.348 201.835 121.348Z" fill="#E5BAAB"/>
<path d="M213.427 109.014L218.546 109.075L222.616 120.732L219.286 134.054C218.299 137.94 222.74 145.711 222.616 150.028L193.937 154.654L193.32 135.473V134.856L183.391 129.922L186.659 121.904C191.717 110.124 200.475 109.384 200.475 109.384L213.427 109.014Z" fill="#FF725E"/>
<g opacity="0.2">
<path d="M213.427 109.014L218.546 109.075L222.616 120.732L219.286 134.054C218.299 137.94 222.74 145.711 222.616 150.028L193.937 154.654L193.32 135.473V134.856L183.391 129.922L186.659 121.904C191.717 110.124 200.475 109.384 200.475 109.384L213.427 109.014Z" fill="white"/>
</g>
<path d="M218.734 109.137C218.734 109.137 218.672 109.137 218.549 109.198C218.364 109.26 218.241 109.322 218.056 109.322C217.377 109.445 216.761 109.507 216.082 109.507L216.144 109.383L218.117 112.591L218.241 112.776L217.994 112.714C216.884 112.529 215.712 112.467 214.54 112.591L214.664 112.467C214.725 113.762 214.91 115.058 215.219 116.353L215.28 116.599L215.034 116.538C213.738 116.291 212.505 115.798 211.333 115.181L211.58 115.058C211.333 116.229 211.086 117.401 210.84 118.635L210.778 118.881L210.593 118.696C210.1 118.265 209.606 117.833 209.113 117.34C208.681 116.908 208.249 116.414 207.818 115.859L208.064 115.921L204.795 118.511L204.61 118.696L204.549 118.45C204.302 117.34 204.117 116.229 203.87 115.119L204.055 115.243L200.54 116.476L200.293 116.538L200.355 116.291C200.725 114.873 201.033 113.639 201.342 112.467L201.403 112.591L198.381 112.097H198.258L198.319 111.974L199.676 110L200.046 109.507C200.108 109.383 200.17 109.322 200.17 109.322C200.17 109.383 200.108 109.445 200.046 109.507L199.738 110L198.443 111.974L198.381 111.85L201.465 112.344H201.588V112.467L200.601 116.291L200.416 116.106L203.932 114.873L204.117 114.811L204.179 114.996L204.857 118.326L204.61 118.265L207.879 115.674L208.003 115.551L208.126 115.674C208.496 116.168 208.928 116.599 209.359 117.093C209.791 117.525 210.285 118.018 210.778 118.388L210.531 118.511C210.778 117.278 211.025 116.106 211.271 114.934L211.333 114.688L211.518 114.811C212.69 115.428 213.862 115.859 215.157 116.168L214.972 116.353C214.664 115.058 214.479 113.762 214.417 112.406V112.282H214.54C215.712 112.159 216.884 112.221 218.056 112.467L217.932 112.652C217.192 111.419 216.576 110.309 216.02 109.445L215.959 109.322H216.082C216.761 109.322 217.377 109.26 218.056 109.198C218.549 109.198 218.734 109.137 218.734 109.137Z" fill="#455A64"/>
<path d="M224.408 114.009C224.408 114.009 224.223 113.885 223.791 113.824C223.175 113.639 222.558 113.639 222.003 113.824L222.064 113.762C222.188 114.44 222.373 115.242 222.62 116.167C222.866 117.093 223.175 118.141 223.483 119.375L223.545 119.56L223.36 119.498C221.879 119.066 220.152 118.758 218.364 118.141L218.549 118.018C218.734 119.745 218.734 121.718 218.857 123.815V124H218.672C217.007 123.692 215.403 123.26 213.8 122.705C213.615 122.643 213.368 122.582 213.306 122.643C213.183 122.767 213.06 122.952 213.06 123.137L212.566 124.37C212.196 125.172 211.888 126.035 211.518 126.899L211.395 127.146L211.209 126.961L207.941 122.89L207.694 122.582H207.941L202.698 126.221L202.513 126.344L202.452 126.159C201.835 124.432 201.28 122.767 200.725 121.163L200.971 121.225C199.121 122.397 197.147 123.383 195.112 124.185L194.865 124.247V124C195.235 121.348 195.606 118.943 195.852 116.846L196.037 116.969C194.557 117.586 192.953 117.833 191.35 117.709H191.227L191.288 117.586L192.398 114.625C192.522 114.317 192.645 114.07 192.707 113.885C192.707 113.824 192.768 113.7 192.83 113.639C192.83 113.7 192.768 113.824 192.768 113.885C192.707 114.07 192.583 114.317 192.522 114.687C192.275 115.366 191.905 116.414 191.473 117.709L191.412 117.586C193.015 117.648 194.557 117.401 196.037 116.784L196.222 116.722V116.907C195.914 119.004 195.606 121.41 195.297 124.062L195.112 123.939C197.147 123.137 199.059 122.15 200.91 120.978L201.095 120.855L201.156 121.04L202.883 125.974L202.637 125.912L207.879 122.273L208.002 122.212L208.064 122.335L208.311 122.643L211.58 126.714L211.271 126.776L212.32 124.247L212.813 123.013C212.875 122.767 212.998 122.582 213.183 122.397C213.245 122.335 213.306 122.335 213.43 122.273C213.492 122.273 213.553 122.273 213.615 122.273C213.738 122.273 213.862 122.335 213.923 122.397C215.465 122.952 217.069 123.383 218.734 123.692L218.549 123.877C218.487 121.78 218.487 119.806 218.302 118.079V117.894L218.487 117.956C220.276 118.573 222.003 118.943 223.483 119.375L223.36 119.498C223.113 118.326 222.805 117.278 222.558 116.352C222.311 115.427 222.126 114.564 222.064 113.885V113.824H222.126C222.743 113.7 223.36 113.7 223.976 113.885C224.038 113.824 224.223 113.885 224.408 114.009Z" fill="#455A64"/>
<path d="M193.505 134.794C193.258 134.732 193.073 134.609 192.888 134.486C192.333 134.116 191.902 133.684 191.532 133.129C191.038 132.327 190.791 131.34 190.853 130.415C190.915 128.256 192.148 126.344 193.999 125.296L193.937 125.419C194.184 123.631 194.369 122.15 194.554 121.102C194.615 120.547 194.739 119.992 194.862 119.375C194.862 119.93 194.8 120.547 194.739 121.102C194.615 122.15 194.43 123.692 194.245 125.481V125.543L194.184 125.604C192.457 126.591 191.285 128.441 191.223 130.415C191.161 131.34 191.346 132.204 191.778 133.005C192.087 133.56 192.518 133.992 193.012 134.424C193.135 134.486 193.32 134.609 193.505 134.794Z" fill="#455A64"/>
<path d="M194.558 121.843C194.496 121.904 194.188 121.473 193.941 120.918C193.695 120.363 193.51 119.931 193.633 119.869C193.695 119.807 194.003 120.239 194.25 120.794C194.496 121.349 194.62 121.781 194.558 121.843Z" fill="#455A64"/>
<path d="M213.057 109.199L213.921 89.0306L205.903 82.9863L198.625 86.5635C198.625 86.5635 198.379 95.6915 198.625 99.6388C198.872 103.586 202.881 104.018 202.881 104.018C202.881 104.018 202.819 106.361 202.696 108.767C202.573 111.604 204.793 114.009 207.63 114.133C207.692 114.133 207.815 114.133 207.877 114.133C210.714 114.133 212.996 111.912 213.057 109.199Z" fill="#E5BAAB"/>
<path d="M199.492 93.1633C199.492 93.4717 199.739 93.6567 199.986 93.6567C200.294 93.6567 200.479 93.41 200.479 93.1633C200.479 92.8549 200.232 92.6699 199.986 92.6699C199.739 92.6699 199.492 92.9166 199.492 93.1633Z" fill="#263238"/>
<path d="M199.001 92.6074C199.062 92.6691 199.432 92.3607 199.988 92.299C200.543 92.2373 200.913 92.5457 200.974 92.484C201.036 92.4224 200.913 92.3607 200.728 92.2373C200.234 91.929 199.556 91.929 199.124 92.3607C199.001 92.484 198.939 92.6074 199.001 92.6074Z" fill="#263238"/>
<path d="M205.352 93.1633C205.352 93.4717 205.598 93.6567 205.845 93.6567C206.153 93.6567 206.338 93.41 206.338 93.1633C206.338 92.8549 206.092 92.6699 205.845 92.6699C205.598 92.6699 205.352 92.9166 205.352 93.1633Z" fill="#263238"/>
<path d="M205.039 92.6074C205.101 92.6691 205.471 92.3607 206.026 92.299C206.581 92.2373 206.951 92.5457 207.013 92.484C207.074 92.4224 206.951 92.3607 206.766 92.2373C206.273 91.929 205.594 91.929 205.162 92.3607C205.039 92.484 205.039 92.6074 205.039 92.6074Z" fill="#263238"/>
<path d="M204.855 97.7266C204.053 98.1583 203.128 98.4667 202.203 98.6517C202.635 99.2068 203.375 99.4535 203.992 99.1451C204.608 99.0218 204.979 98.405 204.855 97.7882C204.917 97.7882 204.855 97.7882 204.855 97.7266Z" fill="white"/>
<path d="M202.945 104.017C204.857 103.955 206.646 103.339 208.188 102.229C208.188 102.229 207.016 105.127 203.007 104.942L202.945 104.017Z" fill="#D78776"/>
<path d="M225.519 100.38C225.026 100.38 224.532 100.257 224.101 100.072C223.422 99.7017 222.929 99.2083 222.559 98.5299C222.127 97.7281 221.695 96.8647 221.387 96.0012C220.647 94.1509 220.092 92.424 219.722 91.1905C219.66 91.0055 219.598 90.8204 219.537 90.6354C219.475 90.4504 219.475 90.2653 219.413 90.0803C217.255 81.8158 209.977 80.2739 208.558 80.2739C207.017 80.2739 204.303 79.4104 200.417 83.481C199.801 84.0978 199.307 84.7762 198.937 85.5163C198.074 86.6265 197.457 87.86 197.21 89.2785C197.025 89.8953 197.025 90.5737 197.148 91.2522C197.21 91.2522 197.21 90.5121 197.519 89.3402C197.704 88.6618 197.95 87.9833 198.259 87.3666C197.889 88.9085 198.074 90.512 198.629 91.9306L200.047 91.5605L205.105 89.8336C204.673 88.2917 205.351 86.3181 205.721 85.4546L205.783 85.393C206.338 88.7851 209.052 91.3755 212.444 91.8689L213.369 104.821C220.092 103.402 219.907 94.3976 219.845 92.609C220.154 93.6575 220.524 94.8294 221.017 96.0629C221.325 96.9263 221.757 97.7898 222.25 98.5916C222.682 99.27 223.299 99.8251 223.977 100.195C224.471 100.442 225.026 100.504 225.519 100.442C225.704 100.442 225.889 100.38 226.074 100.257C226.074 100.318 225.828 100.38 225.519 100.38Z" fill="#263238"/>
<path d="M203.069 97.2334C202.761 97.1717 202.452 97.1101 202.206 97.1101C202.082 97.1101 201.959 97.0484 201.897 96.9867C201.897 96.8634 201.897 96.6783 201.959 96.555L202.329 95.4448C202.576 94.643 202.822 93.9029 202.946 93.3478C203.069 93.0395 203.131 92.7928 203.131 92.4844C203.007 92.7311 202.884 93.0395 202.761 93.2862C202.576 93.8412 202.329 94.5197 202.082 95.3215C201.959 95.6915 201.836 96.1232 201.712 96.4316C201.651 96.6166 201.589 96.8017 201.651 96.9867C201.712 97.1101 201.774 97.1717 201.897 97.1717C201.959 97.1717 202.082 97.1717 202.144 97.1717C202.452 97.2951 202.761 97.2951 203.069 97.2334Z" fill="#263238"/>
<path d="M214.413 97.0493C214.351 96.3709 214.413 95.7541 214.66 95.0757C214.845 94.4589 215.4 93.9655 216.078 93.8421C216.88 93.7805 217.558 94.3972 217.682 95.1373C217.805 95.9391 217.373 96.6792 216.695 97.0493C216.016 97.4193 215.215 97.4193 214.475 97.111" fill="#E5BAAB"/>
<path d="M215.527 96.4936C215.527 96.4319 215.774 96.5553 216.021 96.4319C216.391 96.3086 216.637 96.0002 216.637 95.5685C216.637 95.3834 216.637 95.1984 216.514 95.0134C216.391 94.89 216.267 94.89 216.082 94.89C215.774 94.9517 215.589 95.0134 215.527 94.9517C215.466 94.89 215.651 94.7667 216.021 94.6433C216.267 94.5817 216.514 94.6433 216.699 94.7667C216.884 94.9517 217.008 95.2601 216.946 95.5685C216.946 95.8152 216.822 96.1236 216.637 96.3086C216.514 96.4936 216.267 96.617 216.082 96.617C215.712 96.7403 215.527 96.4936 215.527 96.4936Z" fill="#D78776"/>
<path d="M209.484 254.013V248.216L220.278 248.154L220.339 256.604L219.661 256.666C216.701 256.851 204.489 257.406 202.453 256.789C200.295 256.11 209.484 254.013 209.484 254.013Z" fill="#FF725E"/>
<path d="M202.266 256.234C202.266 256.11 206.336 256.049 211.332 256.049C216.328 256.049 220.337 256.11 220.337 256.234C220.337 256.357 216.328 256.419 211.332 256.419C206.336 256.419 202.266 256.357 202.266 256.234Z" fill="#263238"/>
<path d="M209.298 255.185C209.175 255.247 208.99 255 208.805 254.753C208.62 254.445 208.435 254.198 208.496 254.137C208.558 254.075 208.867 254.198 209.113 254.507C209.36 254.815 209.36 255.123 209.298 255.185Z" fill="#263238"/>
<path d="M208.616 255.556C208.492 255.617 208.307 255.309 208.122 255.001C207.937 254.692 207.814 254.384 207.875 254.322C207.937 254.261 208.245 254.446 208.43 254.816C208.616 255.186 208.677 255.494 208.616 255.556Z" fill="#263238"/>
<path d="M217.071 256.235C217.009 256.235 217.132 255.988 217.317 255.679C217.564 255.248 217.873 254.939 218.243 254.631C218.613 254.323 219.106 254.199 219.599 254.199C219.969 254.199 220.155 254.384 220.155 254.384C220.155 254.446 219.908 254.384 219.599 254.446C219.168 254.508 218.798 254.693 218.428 254.939C218.058 255.186 217.749 255.494 217.502 255.864C217.317 256.111 217.132 256.235 217.071 256.235Z" fill="#263238"/>
<path d="M209.234 254.136C209.296 254.075 209.543 254.075 209.789 254.198C210.036 254.321 210.283 254.445 210.283 254.506C210.283 254.63 209.974 254.63 209.666 254.568C209.358 254.383 209.234 254.198 209.234 254.136Z" fill="#263238"/>
<path d="M209.422 253.521C209.422 253.398 209.73 253.336 210.1 253.336C210.47 253.336 210.717 253.459 210.717 253.521C210.717 253.644 210.409 253.706 210.039 253.706C209.669 253.706 209.422 253.644 209.422 253.521Z" fill="#263238"/>
<path d="M199.796 153.852L193.875 154.839L197.267 159.033C198.254 178.769 198.007 197.95 198.932 207.448C199.056 208.928 205.162 254.322 204.545 253.273L222.554 254.013L217.188 208.373L219.717 167.852C222.493 163.041 223.294 157.367 221.999 152.001L221.567 150.213" fill="#455A64"/>
<path d="M212.254 82.4932C211.329 82.1232 210.651 81.3831 210.404 80.4579C210.157 79.5328 210.466 78.4843 211.206 77.8676C211.946 77.2508 213.056 77.1275 213.919 77.6209C214.536 78.0526 215.03 78.731 215.276 79.4711C215.461 79.9645 215.523 80.5196 215.461 81.013C215.215 81.7531 214.598 82.3699 213.796 82.4932C213.056 82.6166 212.254 82.6783 211.452 82.5549" fill="#263238"/>
<path d="M228.107 93.4725C228.169 93.2258 228.169 92.9174 228.169 92.6707C228.107 92.3624 227.922 92.054 227.737 91.8689C227.429 91.5606 227.059 91.3755 226.689 91.2522C226.195 91.1288 225.702 91.0672 225.147 91.1288C224.592 91.1905 223.975 91.2522 223.358 91.2522C222.68 91.3139 221.94 91.1288 221.323 90.7588C220.706 90.3271 220.274 89.6486 220.089 88.9085C219.658 87.6133 219.041 86.3798 218.116 85.393C217.376 84.5295 216.512 83.8511 215.587 83.2343C214.662 82.7409 213.737 82.3092 212.75 82.0625C212.75 82.0625 212.812 82.0625 212.997 82.0625C213.12 82.0625 213.367 82.1242 213.613 82.1859C214.354 82.3709 215.094 82.6793 215.772 83.0493C216.759 83.6044 217.684 84.3445 218.424 85.208C219.349 86.2565 220.089 87.49 220.521 88.8468C220.644 89.5253 221.015 90.142 221.57 90.5121C222.125 90.8205 222.803 91.0055 223.42 90.9438C224.037 90.9438 224.653 90.8821 225.209 90.8205C225.764 90.7588 226.319 90.8205 226.812 91.0055C227.244 91.1288 227.676 91.3755 227.922 91.7456C228.169 91.9923 228.292 92.3007 228.354 92.6707C228.354 92.8558 228.354 93.1025 228.292 93.2875C228.169 93.4108 228.107 93.4725 228.107 93.4725Z" fill="#263238"/>
<path d="M216.758 97.0478C216.758 96.9861 217.066 97.2328 217.066 97.7879C217.066 98.0963 216.943 98.4046 216.696 98.5897C216.388 98.8364 216.018 98.9597 215.648 98.8981C215.278 98.8364 214.908 98.5897 214.723 98.2196C214.599 97.9729 214.538 97.6029 214.661 97.2945C214.846 96.8011 215.154 96.6777 215.154 96.6777C215.154 96.6777 214.969 96.9244 214.846 97.3562C214.784 97.6029 214.846 97.8496 214.969 98.0346C215.154 98.2813 215.401 98.4663 215.648 98.528C215.956 98.5897 216.203 98.4663 216.45 98.2813C216.635 98.0963 216.758 97.9112 216.82 97.6645C216.881 97.2945 216.696 97.0478 216.758 97.0478Z" fill="#E0E0E0"/>
<path d="M215.154 83.2943C213.859 81.9991 212.132 81.074 210.344 80.7039C212.256 80.6422 214.106 81.629 215.154 83.2943Z" fill="#FF725E"/>
<path d="M217.436 96.2464C217.436 96.1847 217.621 96.1847 217.745 96.3698C217.806 96.4931 217.806 96.6165 217.745 96.7398C217.683 96.9248 217.498 96.9865 217.313 96.9865C217.066 96.9865 216.819 96.8015 216.758 96.4931C216.758 96.4314 216.758 96.4314 216.758 96.3698C216.758 96.1847 216.881 96.123 216.943 96.123C217.005 96.123 216.943 96.2464 217.005 96.3698C217.005 96.4931 217.128 96.6165 217.313 96.6165C217.436 96.6165 217.498 96.5548 217.498 96.4314V96.3698C217.498 96.3698 217.436 96.3081 217.436 96.2464Z" fill="#E0E0E0"/>
<path d="M213.247 108.582C213.309 108.829 213.309 109.014 213.309 109.26C213.309 109.877 213.186 110.494 212.939 111.049C212.631 111.913 212.076 112.653 211.335 113.269C209.547 114.75 206.956 114.873 204.983 113.639C204.181 113.146 203.564 112.468 203.133 111.666C202.824 111.111 202.639 110.556 202.578 109.939C202.516 109.692 202.516 109.507 202.578 109.26C202.701 110.062 202.948 110.864 203.379 111.542C203.811 112.283 204.428 112.899 205.168 113.393C207.018 114.503 209.424 114.38 211.15 113.023C211.829 112.468 212.384 111.789 212.692 110.987C213.001 110.186 213.186 109.384 213.247 108.582Z" fill="#455A64"/>
<path d="M211.953 249.882C211.953 249.82 211.891 249.759 211.891 249.697C211.891 249.574 211.829 249.389 211.829 249.204C211.768 248.772 211.706 248.094 211.582 247.292C211.397 245.627 211.089 243.283 210.781 240.322C210.102 234.402 209.3 226.26 208.56 217.256C207.82 208.251 207.327 200.048 207.018 194.127C206.833 191.167 206.772 188.761 206.71 187.096C206.71 186.294 206.648 185.616 206.648 185.184C206.648 184.999 206.648 184.814 206.648 184.691C206.648 184.814 206.648 184.999 206.71 185.184C206.772 185.678 206.772 186.294 206.833 187.096C206.957 188.761 207.08 191.167 207.265 194.127C207.635 200.048 208.19 208.251 208.869 217.256C209.609 226.26 210.349 234.463 210.966 240.322C211.274 243.283 211.521 245.627 211.706 247.292C211.768 248.094 211.829 248.71 211.891 249.204C211.891 249.389 211.953 249.574 211.953 249.697C211.891 249.759 211.953 249.82 211.953 249.882Z" fill="#263238"/>
<path d="M221.999 249.943C221.752 250.004 221.567 250.066 221.32 250.066C220.888 250.128 220.21 250.128 219.408 250.189C217.805 250.251 215.584 250.313 213.179 250.251C210.774 250.189 208.553 250.128 206.95 250.066L205.038 250.004C204.791 250.004 204.544 250.004 204.359 249.943C204.606 249.881 204.853 249.881 205.038 249.881C205.47 249.881 206.148 249.881 206.95 249.881C208.553 249.881 210.774 249.943 213.179 249.943C215.646 250.004 217.805 250.004 219.408 249.943H221.32C221.505 249.881 221.752 249.881 221.999 249.943Z" fill="#263238"/>
<path d="M218.732 109.137C218.732 109.198 217.684 109.507 216.08 109.63L216.203 109.383L217.375 111.295L218.115 112.529L218.3 112.837L217.93 112.776C216.82 112.591 215.648 112.529 214.477 112.467C214.785 112.344 215.155 112.282 215.463 112.282C216.327 112.221 217.129 112.282 217.992 112.406L217.807 112.652L217.067 111.419L215.895 109.445L215.772 109.26H216.018C216.82 109.198 217.499 109.198 217.93 109.137C218.239 109.137 218.486 109.137 218.732 109.137Z" fill="#455A64"/>
<path d="M224.408 114.009C224.408 114.07 223.483 113.824 222.003 113.824L222.126 113.7C222.496 115.119 222.989 117.093 223.545 119.313L223.606 119.56L223.359 119.498L219.412 118.449L218.364 118.141L218.549 117.956C218.61 120.053 218.734 122.027 218.795 123.753V123.939L218.61 123.877L214.848 122.828L213.8 122.52C213.676 122.458 213.553 122.458 213.43 122.397C213.553 122.397 213.676 122.397 213.8 122.458L214.848 122.705L218.61 123.63L218.425 123.753C218.364 122.027 218.24 120.115 218.117 117.956V117.709L218.364 117.771L219.412 118.079L223.298 119.189L223.113 119.375C222.619 117.154 222.126 115.181 221.818 113.762V113.639H221.941C222.558 113.7 223.174 113.762 223.73 113.885C224.038 113.885 224.223 113.947 224.408 114.009Z" fill="#455A64"/>
<path d="M225.212 129.675C225.027 129.552 224.903 129.367 224.78 129.181C224.533 128.873 224.225 128.318 223.855 127.701H224.04C223.053 129.675 221.881 131.525 220.524 133.252L220.401 133.437L220.278 133.252C219.661 132.45 219.044 131.649 218.427 130.785L217.009 128.935H217.256L214.974 130.97L213.925 131.834L213.432 132.265L213.185 132.45L213.123 132.512H213.062C213.062 132.574 212.877 132.45 212.877 132.389V132.327L212.938 132.45H212.815L212.753 132.327C212.383 131.093 212.137 130.107 211.951 129.428C211.828 129.058 211.828 128.688 211.828 128.318C211.828 128.318 211.89 128.688 212.075 129.367C212.26 130.045 212.568 131.032 212.938 132.204L212.815 132.142C212.877 132.142 212.877 132.142 212.938 132.142C213 132.142 213.062 132.204 213.062 132.265V132.327C213.062 132.327 213.062 132.327 213 132.327L212.938 132.265C212.938 132.265 212.938 132.204 212.877 132.204L212.815 132.142L212.877 132.08L213.123 131.895L213.617 131.463C213.925 131.155 214.295 130.847 214.604 130.538L216.886 128.503L217.009 128.38L217.132 128.503L218.551 130.353C219.229 131.217 219.846 132.019 220.401 132.82H220.154C221.45 131.093 222.683 129.243 223.732 127.393L223.793 127.27L223.855 127.393C224.225 128.071 224.472 128.626 224.718 128.935C225.15 129.428 225.212 129.613 225.212 129.675Z" fill="#455A64"/>
<path d="M214.291 120.918C214.291 121.103 214.23 121.35 214.168 121.535C214.106 121.905 213.921 122.46 213.736 123.138C213.366 124.495 212.749 126.284 211.948 128.319C211.146 130.293 210.344 132.081 209.727 133.315C209.419 133.932 209.172 134.425 208.926 134.795C208.864 134.98 208.741 135.165 208.617 135.288C208.864 134.61 209.172 133.87 209.542 133.191C210.097 131.896 210.899 130.169 211.639 128.196C212.441 126.222 213.058 124.433 213.49 123.077C213.736 122.275 213.983 121.596 214.291 120.918Z" fill="#455A64"/>
<path d="M218.732 109.137C218.732 109.198 217.684 109.507 216.08 109.63L216.203 109.383L217.375 111.295L218.115 112.529L218.3 112.837L217.93 112.776C216.82 112.591 215.648 112.529 214.477 112.467C214.785 112.344 215.155 112.282 215.463 112.282C216.327 112.221 217.129 112.282 217.992 112.406L217.807 112.652L217.067 111.419L215.895 109.445L215.772 109.26H216.018C216.82 109.198 217.499 109.198 217.93 109.137C218.239 109.137 218.486 109.137 218.732 109.137Z" fill="#455A64"/>
<path d="M214.291 120.918C214.291 121.103 214.23 121.35 214.168 121.535C214.106 121.905 213.921 122.46 213.736 123.138C213.366 124.495 212.749 126.284 211.948 128.319C211.146 130.293 210.344 132.081 209.727 133.315C209.419 133.932 209.172 134.425 208.926 134.795C208.864 134.98 208.741 135.165 208.617 135.288C208.864 134.61 209.172 133.87 209.542 133.191C210.097 131.896 210.899 130.169 211.639 128.196C212.441 126.222 213.058 124.433 213.49 123.077C213.736 122.275 213.983 121.596 214.291 120.918Z" fill="#455A64"/>
<path d="M142.816 162.239L157.125 113.022C157.865 110.493 160.517 109.013 163.045 109.753L243.656 133.252C246.184 133.992 247.665 136.644 246.924 139.173L232.616 188.39C231.876 190.919 229.224 192.399 226.695 191.659L146.085 168.16C143.556 167.42 142.076 164.768 142.816 162.239Z" fill="url(#paint4_linear_5139_3409)"/>
<path d="M154.349 148.115L152.868 153.111L152.375 152.988L153.67 148.485L152.498 148.115L152.622 147.684L154.349 148.115Z" fill="white"/>
<path d="M159.404 154.097L159.281 154.529L155.766 153.542L155.889 153.172L158.541 151.754C159.281 151.383 159.466 151.075 159.59 150.705C159.775 150.15 159.466 149.657 158.664 149.41C158.171 149.225 157.616 149.286 157.122 149.595L156.876 149.163C157.493 148.793 158.171 148.731 158.849 148.978C159.836 149.286 160.33 149.965 160.083 150.828C159.96 151.322 159.651 151.692 158.788 152.124L156.629 153.295L159.404 154.097Z" fill="white"/>
<path d="M164.895 154.837L163.909 154.529L163.539 155.824L163.045 155.701L163.415 154.406L160.578 153.604L160.701 153.234L164.34 150.705L164.895 150.89L161.442 153.357L163.6 153.974L163.909 152.802L164.402 152.925L164.094 154.097L165.08 154.406L164.895 154.837Z" fill="white"/>
<path d="M172.544 156.998L171.557 156.689L171.187 157.984L170.694 157.861L171.064 156.566L168.227 155.764L168.35 155.394L171.927 152.865L172.482 153.05L169.028 155.517L171.187 156.134L171.495 154.962L171.989 155.086L171.68 156.257L172.667 156.566L172.544 156.998Z" fill="white"/>
<path d="M176.925 158.106C176.678 158.97 175.876 159.463 174.643 159.093C173.964 158.908 173.409 158.538 173.039 157.921L173.409 157.613C173.717 158.106 174.211 158.476 174.828 158.661C175.691 158.908 176.246 158.6 176.431 158.045C176.616 157.49 176.37 156.873 175.074 156.503L174.026 156.194L175.013 153.789L177.726 154.591L177.603 155.023L175.321 154.344L174.704 155.886L175.321 156.071C176.801 156.503 177.171 157.243 176.925 158.106Z" fill="white"/>
<path d="M181.853 159.526C181.606 160.389 180.681 160.882 179.818 160.636C179.756 160.636 179.756 160.636 179.694 160.574C178.399 160.204 177.906 159.094 178.399 157.49C178.892 155.825 180.064 155.208 181.421 155.578C181.853 155.702 182.223 155.887 182.531 156.195L182.223 156.565C181.976 156.318 181.668 156.133 181.298 156.072C180.249 155.763 179.324 156.257 178.954 157.614C178.892 157.737 178.892 157.86 178.831 158.045C179.262 157.552 180.003 157.429 180.619 157.614C181.483 157.737 182.038 158.6 181.914 159.402C181.853 159.402 181.853 159.464 181.853 159.526ZM181.298 159.402C181.483 158.785 181.113 158.169 180.558 157.984C180.496 157.984 180.434 157.984 180.373 157.922C179.818 157.614 179.139 157.86 178.831 158.415C178.522 158.97 178.769 159.649 179.324 159.957C179.447 160.019 179.571 160.081 179.694 160.081C180.249 160.327 180.928 160.081 181.174 159.526C181.298 159.526 181.298 159.464 181.298 159.402Z" fill="white"/>
<path d="M188.644 161.623C188.397 162.486 187.596 162.918 186.424 162.548C185.745 162.363 185.19 161.993 184.82 161.376L185.19 161.006C185.499 161.499 185.992 161.869 186.547 162.054C187.349 162.301 187.966 162.054 188.151 161.438C188.336 160.821 188.027 160.327 187.102 160.081L186.732 159.957L186.856 159.587L188.768 158.23L186.239 157.49L186.362 157.059L189.569 157.984L189.446 158.354L187.534 159.711C188.521 160.081 188.891 160.759 188.644 161.623Z" fill="white"/>
<path d="M193.634 162.979C193.387 163.843 192.462 164.336 191.599 164.028C191.537 164.028 191.537 164.028 191.475 163.966C190.18 163.596 189.687 162.424 190.18 160.882C190.674 159.155 191.845 158.6 193.202 158.97C193.634 159.094 194.004 159.279 194.312 159.587L194.004 159.957C193.757 159.711 193.449 159.526 193.079 159.464C192.03 159.155 191.105 159.649 190.735 161.006C190.674 161.129 190.674 161.252 190.674 161.437C191.105 160.944 191.845 160.821 192.462 161.006C193.326 161.129 193.881 161.993 193.757 162.794C193.696 162.856 193.696 162.918 193.634 162.979ZM193.141 162.856C193.326 162.239 192.956 161.623 192.339 161.437C192.277 161.437 192.216 161.437 192.216 161.437C191.66 161.129 190.982 161.376 190.674 161.931C190.365 162.486 190.612 163.164 191.167 163.473C191.29 163.534 191.414 163.596 191.537 163.596C192.092 163.843 192.771 163.596 193.017 163.041C193.141 162.918 193.141 162.856 193.141 162.856Z" fill="white"/>
<path d="M199.249 160.821L199.126 161.191L195.672 165.2L195.117 165.015L198.509 161.068L195.919 160.328L195.672 161.253L195.179 161.129L195.611 159.711L199.249 160.821Z" fill="white"/>
<path d="M206.406 162.917L206.282 163.287L202.829 167.296L202.273 167.111L205.666 163.163L203.075 162.423L202.829 163.349L202.335 163.225L202.767 161.807L206.406 162.917Z" fill="white"/>
<path d="M210.231 167.913C209.984 168.777 209.059 169.147 207.887 168.777C206.715 168.407 206.099 167.666 206.407 166.803C206.592 166.186 207.147 165.816 207.702 165.878C207.27 165.569 207.085 165.076 207.209 164.521C207.456 163.719 208.257 163.411 209.367 163.719C210.416 164.028 210.971 164.706 210.724 165.569C210.601 166.063 210.108 166.433 209.614 166.433C210.169 166.741 210.416 167.358 210.231 167.913ZM209.738 167.79C209.923 167.173 209.491 166.618 208.627 166.371C207.764 166.125 207.085 166.371 206.9 166.988C206.715 167.605 207.147 168.16 208.011 168.407C208.936 168.653 209.552 168.407 209.738 167.79ZM208.751 165.94C209.552 166.186 210.108 165.94 210.231 165.384C210.354 164.829 209.984 164.336 209.244 164.151C208.504 163.904 207.887 164.151 207.764 164.706C207.641 165.199 207.949 165.693 208.751 165.94Z" fill="white"/>
<path d="M215.406 168.159C214.912 169.886 213.74 170.503 212.384 170.071C211.952 169.948 211.582 169.763 211.273 169.455L211.582 169.084C211.829 169.331 212.137 169.516 212.507 169.578C213.617 169.886 214.481 169.393 214.851 168.036C214.912 167.913 214.912 167.789 214.974 167.604C214.542 168.098 213.802 168.221 213.185 168.036C212.322 167.913 211.767 167.049 211.89 166.247C211.89 166.186 211.89 166.124 211.952 166.062C212.199 165.199 213.124 164.705 213.925 164.952C213.987 164.952 214.049 165.014 214.049 165.014C215.406 165.507 215.899 166.617 215.406 168.159ZM214.974 166.987C215.097 166.309 214.666 165.692 213.987 165.569C213.987 165.569 213.987 165.569 213.925 165.569C213.37 165.322 212.692 165.631 212.445 166.186C212.199 166.741 212.507 167.419 213.062 167.666C213.124 167.666 213.185 167.728 213.309 167.728C213.987 167.974 214.727 167.666 214.974 166.987Z" fill="white"/>
<path d="M221.208 167.234L219.728 172.23L219.234 172.107L220.53 167.605L219.358 167.234L219.481 166.803L221.208 167.234Z" fill="white"/>
<path d="M223.983 173.218L223.859 173.65L220.344 172.663L220.467 172.293L223.119 170.875C223.859 170.505 224.044 170.196 224.168 169.826C224.353 169.271 224.044 168.778 223.243 168.531C222.749 168.346 222.194 168.408 221.701 168.716L221.454 168.284C222.071 167.914 222.749 167.852 223.428 168.099C224.414 168.408 224.908 169.086 224.661 169.949C224.538 170.443 224.229 170.813 223.366 171.245L221.207 172.416L223.983 173.218Z" fill="white"/>
<path d="M228.48 173.587C228.233 174.389 227.432 174.882 226.26 174.512C225.581 174.327 225.026 173.896 224.656 173.34L225.026 173.032C225.335 173.525 225.828 173.896 226.383 174.081C227.185 174.327 227.802 174.081 227.925 173.464C228.11 172.847 227.802 172.354 226.877 172.107L226.507 171.984L226.63 171.614L228.48 170.318L225.951 169.578L226.075 169.146L229.282 170.072L229.159 170.442L227.247 171.799C228.357 172.045 228.727 172.785 228.48 173.587Z" fill="white"/>
<path d="M190.005 167.504L189.367 169.695L229.278 181.322L229.916 179.131L190.005 167.504Z" fill="white"/>
<path d="M208.177 177.495L207.539 179.686L228.027 185.654L228.666 183.463L208.177 177.495Z" fill="white"/>
<path d="M159.1 131.278L169.955 134.424C171.559 134.917 172.484 136.582 172.052 138.186L170.14 144.847C169.647 146.45 167.982 147.375 166.378 146.944L155.523 143.798C153.92 143.305 152.995 141.64 153.426 140.036L155.338 133.375C155.77 131.771 157.497 130.785 159.1 131.278Z" fill="#FC6767"/>
<path d="M153.547 139.481L153.794 138.679L162.428 141.208C163.415 141.516 164.463 140.899 164.772 139.912C165.08 138.926 164.463 137.877 163.477 137.569L154.842 135.04L155.089 134.238L163.723 136.767C165.142 137.26 165.882 138.802 165.389 140.221C164.957 141.578 163.538 142.318 162.181 142.009L153.547 139.481Z" fill="white"/>
<path d="M165.235 139.576L164.992 140.404L170.912 142.136L171.154 141.307L165.235 139.576Z" fill="white"/>
<path d="M161.171 120.726L160.102 124.396L203.206 136.959L204.275 133.289L161.171 120.726Z" fill="white"/>
<path d="M225.52 129.491L214.911 122.521C214.911 122.521 209.731 137.447 208.127 137.57C199.369 138.372 189.933 135.473 186.664 134.302C186.356 133.931 185.924 133.5 185.492 132.945C185.122 132.451 184.875 131.958 184.69 131.341C184.444 130.663 184.259 129.923 184.197 129.182C184.259 128.812 183.95 128.442 183.58 128.442C183.395 128.442 183.148 128.504 183.025 128.627C182.655 129.121 182.532 131.033 183.395 133.006C184.259 135.042 181.175 133.438 180.065 132.821C178.954 132.266 175.377 130.663 174.884 130.848C174.205 131.156 174.452 131.896 175.562 132.451C176.734 133.006 180.003 134.857 179.695 135.412C179.386 135.967 173.65 133.006 173.65 133.006C173.65 133.006 172.54 132.205 172.108 132.821C171.368 133.993 177.659 136.707 178.276 136.954C178.708 137.139 178.338 137.755 177.906 137.57C177.474 137.385 172.293 134.487 171.553 135.658C170.998 136.584 176.734 137.94 177.474 139.112C178.214 140.284 173.219 137.632 172.725 138.557C172.54 138.927 172.417 139.174 175.501 140.284C177.783 140.963 180.065 141.579 182.347 142.011V142.073C182.347 142.073 213.863 156.196 219.784 142.566C226.26 128.257 225.52 129.491 225.52 129.491Z" fill="#E5BAAB"/>
<path d="M218.548 109.076C218.548 109.076 228.169 110.186 227.182 121.658C226.566 128.751 224.53 135.597 221.323 141.949L208.68 135.35C211.517 129.676 213.675 123.693 215.032 117.526L218.548 109.076Z" fill="#FF725E"/>
<g opacity="0.2">
<path d="M218.548 109.076C218.548 109.076 228.169 110.186 227.182 121.658C226.566 128.751 224.53 135.597 221.323 141.949L208.68 135.35C211.517 129.676 213.675 123.693 215.032 117.526L218.548 109.076Z" fill="white"/>
</g>
<path d="M224.408 114.011C224.408 114.072 223.483 113.826 222.003 113.826L222.126 113.702C222.496 115.121 222.989 117.094 223.545 119.315L223.606 119.561L223.359 119.5L219.412 118.451L218.364 118.143L218.549 117.958C218.61 120.055 218.734 122.029 218.795 123.755V123.94L218.61 123.879L214.848 122.83L213.8 122.522C213.676 122.46 213.553 122.46 213.43 122.399C213.553 122.399 213.676 122.399 213.8 122.46L214.848 122.707L218.61 123.632L218.425 123.755C218.364 122.029 218.24 120.117 218.117 117.958V117.711L218.364 117.773L219.412 118.081L223.298 119.191L223.113 119.376C222.619 117.156 222.126 115.183 221.818 113.764V113.641H221.941C222.558 113.702 223.174 113.764 223.73 113.887C224.038 113.887 224.223 113.949 224.408 114.011Z" fill="#455A64"/>
<path d="M225.212 129.677C225.027 129.553 224.903 129.368 224.78 129.183C224.533 128.875 224.225 128.32 223.855 127.703H224.04C223.053 129.677 221.881 131.527 220.524 133.254L220.401 133.439L220.278 133.254C219.661 132.452 219.044 131.65 218.427 130.787L217.009 128.937H217.256L214.974 130.972L213.925 131.835L213.432 132.267L213.185 132.452L213.123 132.514H213.062C213.062 132.576 212.877 132.452 212.877 132.391V132.329L212.938 132.452H212.815L212.753 132.329C212.383 131.095 212.137 130.109 211.951 129.43C211.828 129.06 211.828 128.69 211.828 128.32C211.828 128.32 211.89 128.69 212.075 129.368C212.26 130.047 212.568 131.034 212.938 132.206L212.815 132.144C212.877 132.144 212.877 132.144 212.938 132.144C213 132.144 213.062 132.206 213.062 132.267V132.329C213.062 132.329 213.062 132.329 213 132.329L212.938 132.267C212.938 132.267 212.938 132.206 212.877 132.206L212.815 132.144L212.877 132.082L213.123 131.897L213.617 131.465C213.925 131.157 214.295 130.849 214.604 130.54L216.886 128.505L217.009 128.382L217.132 128.505L218.551 130.355C219.229 131.219 219.846 132.021 220.401 132.822H220.154C221.45 131.095 222.683 129.245 223.732 127.395L223.793 127.271L223.855 127.395C224.225 128.073 224.472 128.628 224.718 128.937C225.15 129.43 225.212 129.615 225.212 129.677Z" fill="#455A64"/>
<defs>
<linearGradient id="paint0_linear_5139_3409" x1="160.429" y1="21.9603" x2="167.457" y2="28.9907" gradientUnits="userSpaceOnUse">
<stop stop-color="#EC008C"/>
<stop offset="1" stop-color="#FC6767"/>
</linearGradient>
<linearGradient id="paint1_linear_5139_3409" x1="53.1168" y1="80.9837" x2="60.1443" y2="88.0142" gradientUnits="userSpaceOnUse">
<stop stop-color="#EC008C"/>
<stop offset="1" stop-color="#FC6767"/>
</linearGradient>
<linearGradient id="paint2_linear_5139_3409" x1="170.899" y1="31.692" x2="175.238" y2="36.0325" gradientUnits="userSpaceOnUse">
<stop stop-color="#EC008C"/>
<stop offset="1" stop-color="#FC6767"/>
</linearGradient>
<linearGradient id="paint3_linear_5139_3409" x1="47.6095" y1="67.7721" x2="51.9478" y2="72.0511" gradientUnits="userSpaceOnUse">
<stop stop-color="#EC008C"/>
<stop offset="1" stop-color="#FC6767"/>
</linearGradient>
<linearGradient id="paint4_linear_5139_3409" x1="143.194" y1="109.94" x2="222.445" y2="210.617" gradientUnits="userSpaceOnUse">
<stop stop-color="#EC008C"/>
<stop offset="1" stop-color="#FC6767"/>
</linearGradient>
</defs>
</svg>
